<svg width="30" height="30" viewBox="0 0 30 30" fill="none" xmlns="http://www.w3.org/2000/svg">
<path d="M29 19V19.5H29.5V19H29ZM1 5V4.5H0.5V5H1ZM1 25H0.5V25.5H1V25ZM16.5 19C16.5 22.5899 19.4101 25.5 23 25.5V24.5C19.9624 24.5 17.5 22.0376 17.5 19H16.5ZM23 12.5C19.4101 12.5 16.5 15.4101 16.5 19H17.5C17.5 15.9624 19.9624 13.5 23 13.5V12.5ZM29.5 19C29.5 15.4101 26.5899 12.5 23 12.5V13.5C26.0376 13.5 28.5 15.9624 28.5 19H29.5ZM27.4586 22.2212C26.4585 23.6028 24.834 24.5 23 24.5V25.5C25.1683 25.5 27.0886 24.4378 28.2686 22.8075L27.4586 22.2212ZM1 5.5H6V4.5H1V5.5ZM6 14.5H1V15.5H6V14.5ZM1.5 15V5H0.5V15H1.5ZM10.5 10C10.5 12.4853 8.48528 14.5 6 14.5V15.5C9.03757 15.5 11.5 13.0376 11.5 10H10.5ZM6 5.5C8.48528 5.5 10.5 7.51472 10.5 10H11.5C11.5 6.96243 9.03757 4.5 6 4.5V5.5ZM1 15.5H8V14.5H1V15.5ZM8 24.5H1V25.5H8V24.5ZM1.5 25V15H0.5V25H1.5ZM12.5 20C12.5 22.4853 10.4853 24.5 8 24.5V25.5C11.0376 25.5 13.5 23.0376 13.5 20H12.5ZM8 15.5C10.4853 15.5 12.5 17.5147 12.5 20H13.5C13.5 16.9624 11.0376 14.5 8 14.5V15.5ZM17 19.5H29V18.5H17V19.5ZM18 7.5H28V6.5H18V7.5Z" fill="white"/>
</svg>
