<svg width="30" height="30" viewBox="0 0 30 30" fill="none" xmlns="http://www.w3.org/2000/svg">
<path d="M11.1502 24.4769C11.4136 24.3939 11.5599 24.1132 11.4769 23.8498C11.3939 23.5864 11.1132 23.4401 10.8498 23.5231L11.1502 24.4769ZM3.87697 19.5164L3.39336 19.3894L3.13942 20.3566L3.62303 20.4836L3.87697 19.5164ZM18.5 29V29.5H19.5V29H18.5ZM18.125 19.375L18.0716 18.8779C17.8798 18.8985 17.7171 19.0275 17.6532 19.2094C17.5894 19.3914 17.6358 19.5938 17.7726 19.7297L18.125 19.375ZM25 11.825H25.5L25.5 11.8234L25 11.825ZM23.3337 7.8125L22.8677 7.63148C22.796 7.81599 22.8399 8.02539 22.9797 8.16555L23.3337 7.8125ZM23.2337 3.77875L23.6903 3.57486C23.63 3.43994 23.5132 3.33858 23.3711 3.29799L23.2337 3.77875ZM18.8888 5.3625L18.7626 5.84633C18.8982 5.88167 19.0424 5.85851 19.16 5.7825L18.8888 5.3625ZM11.1112 5.3625L10.84 5.78255C10.9577 5.85852 11.1018 5.88166 11.2374 5.84633L11.1112 5.3625ZM6.76625 3.77875L6.62877 3.29802C6.48674 3.33864 6.36994 3.43998 6.30971 3.57486L6.76625 3.77875ZM6.66625 7.8125L7.02028 8.16558C7.16006 8.02542 7.20399 7.816 7.13233 7.63148L6.66625 7.8125ZM5 11.8575H5.5L5.5 11.8562L5 11.8575ZM11.875 19.375L12.228 19.7292C12.3637 19.5939 12.4101 19.393 12.3476 19.2119C12.2851 19.0308 12.1246 18.9013 11.9344 18.8785L11.875 19.375ZM11 22H11.5C11.5 21.9878 11.4996 21.9756 11.4987 21.9634L11 22ZM10.5 29V29.5H11.5V29H10.5ZM10.8498 23.5231C9.57709 23.924 8.70016 23.9008 8.06498 23.6912C7.43128 23.4821 6.96911 23.0648 6.56609 22.5394C6.36339 22.2752 6.18059 21.9902 5.99824 21.695C5.82032 21.407 5.63582 21.0973 5.44711 20.819C5.07552 20.271 4.60096 19.7065 3.87697 19.5164L3.62303 20.4836C3.97029 20.5748 4.26792 20.8618 4.61945 21.3802C4.7923 21.6351 4.9571 21.9124 5.14747 22.2205C5.33339 22.5215 5.53786 22.842 5.77266 23.1481C6.24464 23.7633 6.85841 24.3461 7.75158 24.6408C8.64328 24.9351 9.74416 24.9198 11.1502 24.4769L10.8498 23.5231ZM19.5 21.875C19.5 21.2451 19.4703 20.7356 19.3177 20.2772C19.1592 19.8013 18.884 19.4241 18.4774 19.0203L17.7726 19.7297C18.1148 20.0696 18.2771 20.3175 18.3689 20.5932C18.4665 20.8863 18.5 21.2549 18.5 21.875H19.5ZM18.1784 19.8721C19.9536 19.6813 21.7981 19.2402 23.198 18.0283C24.6197 16.7977 25.5 14.8476 25.5 11.825H24.5C24.5 14.6449 23.6872 16.2823 22.5435 17.2723C21.3782 18.2811 19.7852 18.6937 18.0716 18.8779L18.1784 19.8721ZM25.5 11.8234C25.4947 10.1867 24.8434 8.61839 23.6878 7.45945L22.9797 8.16555C23.9492 9.13782 24.4956 10.4536 24.5 11.8266L25.5 11.8234ZM23.7998 7.99351C24.0745 7.2863 24.2062 6.53166 24.1874 5.77322L23.1877 5.798C23.2033 6.42431 23.0945 7.04748 22.8677 7.63148L23.7998 7.99351ZM24.1874 5.77322C24.1686 5.01478 23.9997 4.26759 23.6903 3.57486L22.7772 3.98263C23.0327 4.55468 23.1722 5.1717 23.1877 5.798L24.1874 5.77322ZM23.2337 3.77875C23.3711 3.29799 23.3706 3.29785 23.3702 3.29772C23.37 3.29767 23.3695 3.29753 23.3692 3.29744C23.3685 3.29725 23.3678 3.29706 23.3671 3.29686C23.3657 3.29647 23.3642 3.29607 23.3626 3.29564C23.3595 3.29479 23.356 3.29388 23.3522 3.29292C23.3445 3.29099 23.3356 3.28886 23.3253 3.2866C23.3047 3.28208 23.2787 3.27708 23.2474 3.27227C23.1847 3.26263 23.1007 3.25377 22.9946 3.25094C22.7823 3.24527 22.4839 3.26381 22.094 3.34713C21.3148 3.51361 20.1725 3.93806 18.6175 4.9425L19.16 5.7825C20.6375 4.82819 21.6677 4.46077 22.3029 4.32506C22.6201 4.25728 22.8394 4.24715 22.9679 4.25058C23.0323 4.2523 23.0745 4.25744 23.0955 4.26065C23.1059 4.26227 23.1112 4.26341 23.1113 4.26343C23.1113 4.26344 23.1101 4.26317 23.1076 4.26255C23.1064 4.26223 23.1048 4.26183 23.1029 4.26133C23.102 4.26108 23.101 4.2608 23.0999 4.2605C23.0993 4.26035 23.0988 4.26019 23.0982 4.26002C23.0979 4.25994 23.0975 4.25981 23.0973 4.25977C23.0969 4.25964 23.0964 4.25951 23.2337 3.77875ZM19.0149 4.87866C16.3823 4.19246 13.6177 4.19246 10.9851 4.87866L11.2374 5.84633C13.7046 5.20324 16.2954 5.20324 18.7626 5.84633L19.0149 4.87866ZM11.3825 4.94244C9.82683 3.93805 8.6846 3.51361 7.90559 3.34713C7.5157 3.26381 7.21741 3.24527 7.00518 3.25094C6.89919 3.25377 6.81518 3.26263 6.75248 3.27228C6.72116 3.2771 6.69523 3.2821 6.67462 3.28662C6.66432 3.28888 6.65535 3.29102 6.64771 3.29294C6.64389 3.29391 6.6404 3.29482 6.63724 3.29567C6.63567 3.2961 6.63417 3.29651 6.63276 3.2969C6.63205 3.29709 6.63137 3.29729 6.6307 3.29747C6.63037 3.29757 6.62989 3.2977 6.62972 3.29775C6.62924 3.29789 6.62877 3.29802 6.76625 3.77875C6.90373 4.25948 6.90327 4.25961 6.90281 4.25974C6.90266 4.25978 6.90221 4.25991 6.90192 4.25999C6.90133 4.26016 6.90077 4.26031 6.90022 4.26047C6.89913 4.26077 6.89812 4.26105 6.89718 4.2613C6.89531 4.2618 6.89375 4.26221 6.8925 4.26252C6.89001 4.26315 6.88877 4.26342 6.88881 4.26341C6.88889 4.26339 6.8941 4.26225 6.90455 4.26065C6.92542 4.25744 6.96755 4.2523 7.03189 4.25058C7.16032 4.24715 7.37946 4.25728 7.6966 4.32505C8.33165 4.46076 9.36192 4.8282 10.84 5.78255L11.3825 4.94244ZM6.30971 3.57486C6.00034 4.26759 5.83137 5.01478 5.81257 5.77322L6.81226 5.798C6.82779 5.1717 6.96732 4.55468 7.22279 3.98263L6.30971 3.57486ZM5.81257 5.77322C5.79377 6.53166 5.92551 7.2863 6.20017 7.99351L7.13233 7.63148C6.90552 7.04748 6.79674 6.42431 6.81226 5.798L5.81257 5.77322ZM6.31222 7.45942C5.73568 8.03751 5.27884 8.72367 4.96787 9.47858L5.8925 9.85946C6.15337 9.22616 6.53661 8.65054 7.02028 8.16558L6.31222 7.45942ZM4.96787 9.47858C4.6569 10.2335 4.49791 11.0423 4.5 11.8588L5.5 11.8562C5.49824 11.1713 5.63162 10.4928 5.8925 9.85946L4.96787 9.47858ZM4.5 11.8575C4.5 14.8604 5.38135 16.792 6.80335 18.0139C8.20195 19.2157 10.0447 19.6595 11.8156 19.8715L11.9344 18.8785C10.2165 18.673 8.6218 18.258 7.45509 17.2555C6.31178 16.273 5.5 14.6546 5.5 11.8575H4.5ZM11.522 19.0208C10.6531 19.8868 10.4188 20.913 10.5013 22.0366L11.4987 21.9634C11.4312 21.0445 11.6194 20.3357 12.228 19.7292L11.522 19.0208ZM10.5 22V29H11.5V22H10.5ZM19.5 29V26H18.5V29H19.5ZM19.5 26V21.875H18.5V26H19.5Z" fill="white"/>
</svg>
