<svg width="30" height="30" viewBox="0 0 30 30" fill="none" xmlns="http://www.w3.org/2000/svg">
<path d="M5.86957 24.5285L6.352 24.6599C6.40364 24.4702 6.33937 24.2679 6.18774 24.1428L5.86957 24.5285ZM4.65217 29L4.16973 28.8687C4.11855 29.0567 4.18125 29.2573 4.33039 29.3827C4.47954 29.5081 4.68795 29.5354 4.86439 29.4527L4.65217 29ZM9.52174 26.7174L9.70997 26.2542C9.58086 26.2017 9.43571 26.2055 9.30952 26.2647L9.52174 26.7174ZM13 13L13.3 12.6L13.0072 12.3804L12.7094 12.5931L13 13ZM17 16L16.7 16.4L17.0163 16.6372L17.3201 16.3841L17 16ZM15 0.5C7.01214 0.5 0.5 6.69882 0.5 14.3913H1.5C1.5 7.29248 7.52212 1.5 15 1.5V0.5ZM0.5 14.3913C0.5 18.6074 2.46908 22.3715 5.55139 24.9142L6.18774 24.1428C3.31701 21.7746 1.5 18.2855 1.5 14.3913H0.5ZM5.38713 24.3972L4.16973 28.8687L5.13461 29.1313L6.352 24.6599L5.38713 24.3972ZM4.86439 29.4527L9.73396 27.1701L9.30952 26.2647L4.43996 28.5473L4.86439 29.4527ZM9.33351 27.1806C11.0758 27.8886 12.99 28.2826 15 28.2826V27.2826C13.1216 27.2826 11.335 26.9145 9.70997 26.2542L9.33351 27.1806ZM15 28.2826C22.9879 28.2826 29.5 22.0838 29.5 14.3913H28.5C28.5 21.4901 22.4779 27.2826 15 27.2826V28.2826ZM29.5 14.3913C29.5 6.69882 22.9879 0.5 15 0.5V1.5C22.4779 1.5 28.5 7.29248 28.5 14.3913H29.5ZM6.29062 18.4069L13.2906 13.4069L12.7094 12.5931L5.70938 17.5931L6.29062 18.4069ZM12.7 13.4L16.7 16.4L17.3 15.6L13.3 12.6L12.7 13.4ZM17.3201 16.3841L23.3201 11.3841L22.6799 10.6159L16.6799 15.6159L17.3201 16.3841Z" fill="white"/>
</svg>
