<svg width="30" height="30" viewBox="0 0 30 30" fill="none" xmlns="http://www.w3.org/2000/svg">
<path d="M29 15.1677C29 18.4814 22.732 21.1677 15 21.1677C7.26801 21.1677 1 18.4814 1 15.1677C1 11.854 7.26801 9.16773 15 9.16773C22.732 9.16773 29 11.854 29 15.1677Z" stroke="white"/>
<path d="M8.33178 27.4778C11.2455 29.0561 16.5929 24.8242 20.2756 18.0255C23.9583 11.2269 24.5816 4.43604 21.6679 2.85775C18.7542 1.27946 13.4068 5.51139 9.72413 12.31C6.04146 19.1087 5.41808 25.8995 8.33178 27.4778Z" stroke="white"/>
<path d="M21.668 27.4778C18.7543 29.0561 13.4069 24.8242 9.72417 18.0255C6.04149 11.2269 5.41812 4.43604 8.33182 2.85775C11.2455 1.27946 16.5929 5.51139 20.2756 12.31C23.9583 19.1087 24.5817 25.8995 21.668 27.4778Z" stroke="white"/>
<path d="M13 15.1677C13 16.2723 13.8954 17.1677 15 17.1677C16.1046 17.1677 17 16.2723 17 15.1677C17 14.0632 16.1046 13.1677 15 13.1677C13.8954 13.1677 13 14.0632 13 15.1677Z" stroke="white"/>
</svg>