<svg width="30" height="30" viewBox="0 0 30 30" fill="none" xmlns="http://www.w3.org/2000/svg">
<path d="M28.9568 3L29.4557 2.96692C29.4424 2.76635 29.3103 2.59324 29.1203 2.5275C28.9304 2.46176 28.7195 2.51616 28.5851 2.6656L28.9568 3ZM27.4599 8.91781C27.4599 8.64167 27.236 8.41781 26.9599 8.41781C26.6837 8.41781 26.4599 8.64167 26.4599 8.91781H27.4599ZM14.9784 9.08219H14.4784V9.08219L14.9784 9.08219ZM14.9784 11H15.4784V11L14.9784 11ZM1 25V24.5C0.779732 24.5 0.585411 24.6441 0.521506 24.8549C0.4576 25.0657 0.539167 25.2935 0.722353 25.4158L1 25ZM2.99691 3L3.46517 2.82468C3.3954 2.63834 3.22179 2.5111 3.02309 2.50069C2.8244 2.49027 2.63843 2.59865 2.54956 2.77667L2.99691 3ZM10.9846 21L11.3384 21.3533C11.4608 21.2307 11.511 21.0536 11.4712 20.885C11.4314 20.7165 11.3072 20.5806 11.1429 20.5257L10.9846 21ZM25.4321 4.94676L25.0612 5.2821L25.2414 5.48135L25.507 5.44112L25.4321 4.94676ZM28.4579 3.03308C28.5627 4.61381 28.4716 5.63839 28.1857 6.44427C27.9036 7.2397 27.4137 7.87259 26.6139 8.63899L27.3058 9.36101C28.1561 8.5462 28.7712 7.78494 29.1282 6.7786C29.4815 5.78271 29.5638 4.59791 29.4557 2.96692L28.4579 3.03308ZM27.4599 10.375V8.91781H26.4599V10.375H27.4599ZM14.4784 9.08219L14.4784 11L15.4784 11L15.4784 9.08219L14.4784 9.08219ZM14.4784 11L14.4784 12H15.4784L15.4784 11L14.4784 11ZM21.0512 2.5C17.4204 2.5 14.4784 5.44768 14.4784 9.08219H15.4784C15.4784 5.9985 17.9741 3.5 21.0512 3.5V2.5ZM26.4599 10.375C26.4599 19.2813 19.2512 26.5 10.3605 26.5V27.5C19.805 27.5 27.4599 19.8321 27.4599 10.375H26.4599ZM2.52866 3.17532C3.57126 5.95989 7.50902 11.5 14.9784 11.5V10.5C8.07 10.5 4.41948 5.37344 3.46517 2.82468L2.52866 3.17532ZM2.54956 2.77667C0.504379 6.87336 0.218297 10.7819 1.66549 14.0761C3.11095 17.3663 6.24173 19.9437 10.8262 21.4743L11.1429 20.5257C6.74129 19.0563 3.88133 16.6337 2.58104 13.6739C1.28248 10.7181 1.49562 7.12664 3.44427 3.22333L2.54956 2.77667ZM10.6307 20.6467C9.363 21.9164 5.6224 24.5 1 24.5V25.5C5.96279 25.5 9.94362 22.7502 11.3384 21.3533L10.6307 20.6467ZM25.803 4.61142C24.6311 3.31543 22.936 2.5 21.0512 2.5V3.5C22.6413 3.5 24.0708 4.18674 25.0612 5.2821L25.803 4.61142ZM25.507 5.44112C26.9091 5.22877 28.2896 4.48924 29.3285 3.3344L28.5851 2.6656C27.6949 3.65504 26.5216 4.27606 25.3572 4.4524L25.507 5.44112ZM0.722353 25.4158C3.86072 27.5113 7.15022 27.5 10.3605 27.5V26.5C7.11718 26.5 4.13002 26.4887 1.27765 24.5842L0.722353 25.4158Z" fill="white"/>
</svg>
